<svg width="779" height="879" viewBox="0 0 779 879" fill="none" xmlns="http://www.w3.org/2000/svg">
<path d="M404.5 8.00463C404.503 3.58636 400.923 0.00256127 396.505 1.43051e-06C392.086 -0.00255841 388.503 3.57709 388.5 7.99537L404.5 8.00463ZM390.34 876.654C393.462 879.78 398.528 879.783 401.654 876.66L452.595 825.778C455.721 822.656 455.724 817.59 452.601 814.464C449.479 811.338 444.414 811.335 441.288 814.458L396.007 859.686L350.778 814.405C347.656 811.279 342.59 811.276 339.464 814.399C336.338 817.521 336.335 822.586 339.458 825.712L390.34 876.654ZM388.5 7.99537L388 870.995L404 871.005L404.5 8.00463L388.5 7.99537Z" fill="url(#paint0_linear_260_318)" fill-opacity="0.5"/>
<path d="M42 57.5C37.8579 57.5 34.5 60.8579 34.5 65C34.5 69.1421 37.8579 72.5 42 72.5V57.5ZM56.4583 72.5C60.6005 72.5 63.9583 69.1421 63.9583 65C63.9583 60.8579 60.6005 57.5 56.4583 57.5V72.5ZM85.375 57.5C81.2329 57.5 77.875 60.8579 77.875 65C77.875 69.1421 81.2329 72.5 85.375 72.5V57.5ZM114.292 72.5C118.434 72.5 121.792 69.1421 121.792 65C121.792 60.8579 118.434 57.5 114.292 57.5V72.5ZM143.208 57.5C139.066 57.5 135.708 60.8579 135.708 65C135.708 69.1421 139.066 72.5 143.208 72.5V57.5ZM172.125 72.5C176.267 72.5 179.625 69.1421 179.625 65C179.625 60.8579 176.267 57.5 172.125 57.5V72.5ZM201.042 57.5C196.9 57.5 193.542 60.8579 193.542 65C193.542 69.1421 196.9 72.5 201.042 72.5V57.5ZM229.958 72.5C234.1 72.5 237.458 69.1421 237.458 65C237.458 60.8579 234.1 57.5 229.958 57.5V72.5ZM258.875 57.5C254.733 57.5 251.375 60.8579 251.375 65C251.375 69.1421 254.733 72.5 258.875 72.5V57.5ZM287.792 72.5C291.934 72.5 295.292 69.1421 295.292 65C295.292 60.8579 291.934 57.5 287.792 57.5V72.5ZM316.708 57.5C312.566 57.5 309.208 60.8579 309.208 65C309.208 69.1421 312.566 72.5 316.708 72.5V57.5ZM345.625 72.5C349.767 72.5 353.125 69.1421 353.125 65C353.125 60.8579 349.767 57.5 345.625 57.5V72.5ZM374.542 57.5C370.4 57.5 367.042 60.8579 367.042 65C367.042 69.1421 370.4 72.5 374.542 72.5V57.5ZM42 72.5H56.4583V57.5H42V72.5ZM85.375 72.5H114.292V57.5H85.375V72.5ZM143.208 72.5H172.125V57.5H143.208V72.5ZM201.042 72.5H229.958V57.5H201.042V72.5ZM258.875 72.5H287.792V57.5H258.875V72.5ZM316.708 72.5H345.625V57.5H316.708V72.5ZM374.542 72.5H389V57.5H374.542V72.5Z" fill="#7DBEE3" fill-opacity="0.3"/>
<path d="M771.003 212.5C775.145 212.5 778.503 209.142 778.503 205C778.503 200.858 775.145 197.5 771.003 197.5V212.5ZM755.711 197.5C751.569 197.5 748.211 200.858 748.211 205C748.211 209.142 751.569 212.5 755.711 212.5V197.5ZM725.127 212.5C729.269 212.5 732.627 209.142 732.627 205C732.627 200.858 729.269 197.5 725.127 197.5V212.5ZM694.543 197.5C690.401 197.5 687.043 200.858 687.043 205C687.043 209.142 690.401 212.5 694.543 212.5V197.5ZM663.959 212.5C668.102 212.5 671.459 209.142 671.459 205C671.459 200.858 668.102 197.5 663.959 197.5V212.5ZM633.376 197.5C629.234 197.5 625.876 200.858 625.876 205C625.876 209.142 629.234 212.5 633.376 212.5V197.5ZM602.792 212.5C606.934 212.5 610.292 209.142 610.292 205C610.292 200.858 606.934 197.5 602.792 197.5V212.5ZM572.208 197.5C568.066 197.5 564.708 200.858 564.708 205C564.708 209.142 568.066 212.5 572.208 212.5V197.5ZM541.624 212.5C545.767 212.5 549.124 209.142 549.124 205C549.124 200.858 545.767 197.5 541.624 197.5V212.5ZM511.041 197.5C506.898 197.5 503.541 200.858 503.541 205C503.541 209.142 506.898 212.5 511.041 212.5V197.5ZM480.457 212.5C484.599 212.5 487.957 209.142 487.957 205C487.957 200.858 484.599 197.5 480.457 197.5V212.5ZM449.873 197.5C445.731 197.5 442.373 200.858 442.373 205C442.373 209.142 445.731 212.5 449.873 212.5V197.5ZM419.289 212.5C423.431 212.5 426.789 209.142 426.789 205C426.789 200.858 423.431 197.5 419.289 197.5V212.5ZM771.003 197.5H755.711V212.5H771.003V197.5ZM725.127 197.5H694.543V212.5H725.127V197.5ZM663.959 197.5L633.376 197.5V212.5L663.959 212.5V197.5ZM602.792 197.5H572.208V212.5H602.792V197.5ZM541.624 197.5H511.041V212.5H541.624V197.5ZM480.457 197.5L449.873 197.5V212.5L480.457 212.5V197.5ZM419.289 197.5H403.997V212.5H419.289V197.5Z" fill="#7DBEE3" fill-opacity="0.3"/>
<path d="M8 503.75C3.85786 503.75 0.5 507.108 0.5 511.25C0.5 515.392 3.85786 518.75 8 518.75V503.75ZM23.8373 518.75C27.9794 518.75 31.3373 515.392 31.3373 511.25C31.3373 507.108 27.9794 503.75 23.8373 503.75V518.75ZM55.5119 503.75C51.3697 503.75 48.0119 507.108 48.0119 511.25C48.0119 515.392 51.3697 518.75 55.5119 518.75V503.75ZM87.1865 518.75C91.3286 518.75 94.6865 515.392 94.6865 511.25C94.6865 507.108 91.3286 503.75 87.1865 503.75V518.75ZM118.861 503.75C114.719 503.75 111.361 507.108 111.361 511.25C111.361 515.392 114.719 518.75 118.861 518.75V503.75ZM150.536 518.75C154.678 518.75 158.036 515.392 158.036 511.25C158.036 507.108 154.678 503.75 150.536 503.75V518.75ZM182.21 503.75C178.068 503.75 174.71 507.108 174.71 511.25C174.71 515.392 178.068 518.75 182.21 518.75V503.75ZM213.885 518.75C218.027 518.75 221.385 515.392 221.385 511.25C221.385 507.108 218.027 503.75 213.885 503.75V518.75ZM245.559 503.75C241.417 503.75 238.059 507.108 238.059 511.25C238.059 515.392 241.417 518.75 245.559 518.75V503.75ZM277.234 518.75C281.376 518.75 284.734 515.392 284.734 511.25C284.734 507.108 281.376 503.75 277.234 503.75V518.75ZM308.909 503.75C304.766 503.75 301.409 507.108 301.409 511.25C301.409 515.392 304.766 518.75 308.909 518.75V503.75ZM340.583 518.75C344.725 518.75 348.083 515.392 348.083 511.25C348.083 507.108 344.725 503.75 340.583 503.75V518.75ZM372.258 503.75C368.116 503.75 364.758 507.108 364.758 511.25C364.758 515.392 368.116 518.75 372.258 518.75V503.75ZM8 518.75H23.8373V503.75H8V518.75ZM55.5119 518.75H87.1865V503.75H55.5119V518.75ZM118.861 518.75H150.536V503.75H118.861V518.75ZM182.21 518.75H213.885V503.75H182.21V518.75ZM245.559 518.75H277.234V503.75H245.559V518.75ZM308.909 518.75H340.583V503.75H308.909V518.75ZM372.258 518.75H388.095V503.75H372.258V518.75Z" fill="#7DBEE3" fill-opacity="0.3"/>
<path d="M771 674.5C775.142 674.5 778.5 671.142 778.5 667C778.5 662.858 775.142 659.5 771 659.5V674.5ZM755.708 659.5C751.566 659.5 748.208 662.858 748.208 667C748.208 671.142 751.566 674.5 755.708 674.5V659.5ZM725.125 674.5C729.267 674.5 732.625 671.142 732.625 667C732.625 662.858 729.267 659.5 725.125 659.5V674.5ZM694.542 659.5C690.4 659.5 687.042 662.858 687.042 667C687.042 671.142 690.4 674.5 694.542 674.5V659.5ZM663.958 674.5C668.1 674.5 671.458 671.142 671.458 667C671.458 662.858 668.1 659.5 663.958 659.5V674.5ZM633.375 659.5C629.233 659.5 625.875 662.858 625.875 667C625.875 671.142 629.233 674.5 633.375 674.5V659.5ZM602.792 674.5C606.934 674.5 610.292 671.142 610.292 667C610.292 662.858 606.934 659.5 602.792 659.5V674.5ZM572.208 659.5C568.066 659.5 564.708 662.858 564.708 667C564.708 671.142 568.066 674.5 572.208 674.5V659.5ZM541.625 674.5C545.767 674.5 549.125 671.142 549.125 667C549.125 662.858 545.767 659.5 541.625 659.5V674.5ZM511.042 659.5C506.9 659.5 503.542 662.858 503.542 667C503.542 671.142 506.9 674.5 511.042 674.5V659.5ZM480.458 674.5C484.6 674.5 487.958 671.142 487.958 667C487.958 662.858 484.6 659.5 480.458 659.5V674.5ZM449.875 659.5C445.733 659.5 442.375 662.858 442.375 667C442.375 671.142 445.733 674.5 449.875 674.5V659.5ZM419.292 674.5C423.434 674.5 426.792 671.142 426.792 667C426.792 662.858 423.434 659.5 419.292 659.5V674.5ZM771 659.5H755.708V674.5H771V659.5ZM725.125 659.5H694.542V674.5H725.125V659.5ZM663.958 659.5H633.375V674.5H663.958V659.5ZM602.792 659.5H572.208V674.5H602.792V659.5ZM541.625 659.5H511.042V674.5H541.625V659.5ZM480.458 659.5H449.875V674.5H480.458V659.5ZM419.292 659.5H404V674.5H419.292V659.5Z" fill="#7DBEE3" fill-opacity="0.3"/>
<defs>
<linearGradient id="paint0_linear_260_318" x1="395.989" y1="8" x2="395.989" y2="871" gradientUnits="userSpaceOnUse">
<stop stop-color="#7DBEE3"/>
<stop offset="1" stop-color="#24126A"/>
</linearGradient>
</defs>
</svg>
