<svg width="1512" height="500" viewBox="0 0 1512 500" fill="none" xmlns="http://www.w3.org/2000/svg">
<path fill-rule="evenodd" clip-rule="evenodd" d="M0 344.444L40.32 377.778C80.64 400 171.36 455.556 252 411.111C332.64 366.667 423.36 233.333 504 155.556C584.64 88.8889 675.36 66.6667 756 55.5556C836.64 55.5556 927.36 55.5555 1008 122.222C1088.64 188.889 1179.36 322.222 1260 311.111C1340.64 300 1431.36 155.556 1471.68 77.7778L1512 0V500H1471.68C1431.36 500 1340.64 500 1260 500C1179.36 500 1088.64 500 1008 500C927.36 500 836.64 500 756 500C675.36 500 584.64 500 504 500C423.36 500 332.64 500 252 500C171.36 500 80.64 500 40.32 500H0V344.444Z" fill="url(#paint0_linear_506_856)" fill-opacity="0.3"/>
<defs>
<linearGradient id="paint0_linear_506_856" x1="756" y1="0" x2="756" y2="500" gradientUnits="userSpaceOnUse">
<stop stop-color="#7DBEE3"/>
<stop offset="0.9998" stop-color="#7DBEE3" stop-opacity="0"/>
<stop offset="0.9999" stop-color="#7DBEE3" stop-opacity="0"/>
</linearGradient>
</defs>
</svg>
