<svg width="19" height="19" viewBox="0 0 19 19" fill="none" xmlns="http://www.w3.org/2000/svg">
<path d="M9.15582 14.8549C9.22321 14.9496 9.31338 15.027 9.41857 15.0804C9.52376 15.1339 9.64081 15.1618 9.75964 15.1618C9.87847 15.1618 9.99552 15.1339 10.1007 15.0804C10.2059 15.027 10.2961 14.9496 10.3635 14.8549L16.9746 5.61952C17.0511 5.513 17.096 5.38823 17.1043 5.25878C17.1127 5.12932 17.0842 5.00013 17.0219 4.88523C16.9597 4.77034 16.8661 4.67414 16.7513 4.60708C16.6365 4.54003 16.5049 4.50468 16.3707 4.50488H3.14852C3.01472 4.50542 2.88359 4.54122 2.76925 4.60844C2.65491 4.67565 2.56168 4.77174 2.49958 4.88637C2.43749 5.001 2.40888 5.12983 2.41683 5.25901C2.42478 5.38819 2.46899 5.51283 2.54471 5.61952L9.15582 14.8549Z" fill="white"/>
</svg>
