<svg width="23" height="32" viewBox="0 0 23 32" fill="none" xmlns="http://www.w3.org/2000/svg">
<path d="M0 7.74184C0 7.05295 0 6.70851 0.0242338 6.41803C0.308432 3.01149 3.01149 0.308432 6.41803 0.0242338C6.70851 0 7.05295 0 7.74184 0C8.10142 0 8.2812 0 8.45199 0.00834871C10.4003 0.103588 12.2204 1.00743 13.4738 2.50205C13.5837 2.63307 13.6924 2.7763 13.9097 3.06278L17.433 7.70713C20.5881 11.8661 22.1656 13.9456 22.1392 16.3431C22.1128 18.7407 20.4899 20.785 17.244 24.8735L13.9323 29.0449C13.6937 29.3455 13.5744 29.4957 13.4533 29.6329C12.2087 31.0426 10.4493 31.8922 8.5714 31.9904C8.38871 32 8.19684 32 7.8131 32C7.05802 32 6.68047 32 6.36228 31.9709C3.00019 31.6633 0.336685 28.9998 0.0291097 25.6377C0 25.3195 0 24.942 0 24.1869V7.74184Z" fill="white"/>
</svg>
