<svg width="9" height="10" viewBox="0 0 9 10" fill="none" xmlns="http://www.w3.org/2000/svg">
<path d="M4.19168 7.71289C4.22608 7.76285 4.27212 7.80371 4.32581 7.83193C4.37951 7.86015 4.43927 7.8749 4.49993 7.8749C4.56059 7.8749 4.62035 7.86015 4.67405 7.83193C4.72774 7.80371 4.77378 7.76285 4.80818 7.71289L8.18318 2.83789C8.22225 2.78166 8.24515 2.7158 8.24942 2.64746C8.25368 2.57913 8.23914 2.51093 8.20736 2.45028C8.17559 2.38964 8.1278 2.33885 8.06919 2.30346C8.01058 2.26806 7.9434 2.2494 7.87493 2.24951H1.12493C1.05662 2.24979 0.989682 2.26869 0.931311 2.30417C0.872939 2.33965 0.825344 2.39038 0.793644 2.45088C0.761943 2.51139 0.747337 2.5794 0.751396 2.64759C0.755455 2.71577 0.778026 2.78157 0.81668 2.83789L4.19168 7.71289Z" fill="#979699"/>
</svg>
