<svg width="10" height="10" viewBox="0 0 10 10" fill="none" xmlns="http://www.w3.org/2000/svg">
<path d="M4.60843 8.07397C4.64283 8.12394 4.68886 8.16479 4.74256 8.19301C4.79626 8.22124 4.85601 8.23598 4.91668 8.23598C4.97734 8.23598 5.0371 8.22124 5.09079 8.19301C5.14449 8.16479 5.19053 8.12394 5.22493 8.07397L8.59993 3.19897C8.63899 3.14274 8.6619 3.07688 8.66617 3.00855C8.67043 2.94021 8.65588 2.87202 8.62411 2.81137C8.59234 2.75072 8.54455 2.69994 8.48594 2.66454C8.42733 2.62915 8.36015 2.61049 8.29168 2.6106H1.54168C1.47337 2.61088 1.40643 2.62978 1.34806 2.66526C1.28969 2.70074 1.24209 2.75146 1.21039 2.81197C1.17869 2.87248 1.16409 2.94048 1.16814 3.00867C1.1722 3.07686 1.19477 3.14265 1.23343 3.19897L4.60843 8.07397Z" fill="#979699"/>
</svg>
