<svg width="10" height="10" viewBox="0 0 10 10" fill="none" xmlns="http://www.w3.org/2000/svg">
<path d="M4.61819 7.71289C4.6526 7.76285 4.69863 7.80371 4.75233 7.83193C4.80603 7.86015 4.86578 7.8749 4.92644 7.8749C4.98711 7.8749 5.04686 7.86015 5.10056 7.83193C5.15426 7.80371 5.20029 7.76285 5.23469 7.71289L8.60969 2.83789C8.64876 2.78166 8.67167 2.7158 8.67593 2.64746C8.68019 2.57913 8.66565 2.51093 8.63388 2.45028C8.6021 2.38964 8.55431 2.33885 8.49571 2.30346C8.4371 2.26806 8.36991 2.2494 8.30144 2.24951H1.55144C1.48314 2.24979 1.4162 2.26869 1.35782 2.30417C1.29945 2.33965 1.25186 2.39038 1.22016 2.45088C1.18846 2.51139 1.17385 2.5794 1.17791 2.64759C1.18197 2.71577 1.20454 2.78157 1.24319 2.83789L4.61819 7.71289Z" fill="#979699"/>
</svg>
