<svg width="28" height="27" viewBox="0 0 28 27" fill="none" xmlns="http://www.w3.org/2000/svg">
<path d="M23.4475 18.1319C22.8381 17.1129 22.1046 15.1748 22.1046 11.7482V11.0389C22.1046 6.6132 18.4375 2.98676 13.9234 2.95679H13.8614C12.7775 2.9581 11.7045 3.16586 10.7037 3.56821C9.70285 3.97057 8.79374 4.55963 8.02828 5.30177C7.26283 6.04391 6.65602 6.9246 6.24249 7.89354C5.82896 8.86248 5.61682 9.90071 5.61818 10.9489V11.7482C5.61818 15.1748 4.88476 17.1129 4.2753 18.1319C4.1279 18.3747 4.04945 18.6509 4.04788 18.9325C4.0463 19.2141 4.12167 19.491 4.26635 19.7354C4.41103 19.9797 4.61988 20.1828 4.87178 20.324C5.12367 20.4652 5.40966 20.5396 5.70082 20.5395H9.72947C9.72947 21.5994 10.1648 22.6158 10.9397 23.3652C11.7146 24.1146 12.7656 24.5356 13.8614 24.5356C14.9573 24.5356 16.0082 24.1146 16.7831 23.3652C17.558 22.6158 17.9934 21.5994 17.9934 20.5395H22.022C22.3131 20.5413 22.5995 20.4683 22.8518 20.3278C23.1041 20.1874 23.3132 19.9846 23.4579 19.7403C23.6013 19.4946 23.6757 19.2169 23.6739 18.9348C23.6721 18.6526 23.5941 18.3759 23.4475 18.1319ZM13.8614 22.9372C13.2047 22.9346 12.5757 22.6811 12.1114 22.232C11.647 21.7829 11.385 21.1746 11.3822 20.5395H16.3406C16.3379 21.1746 16.0758 21.7829 15.6114 22.232C15.1471 22.6811 14.5181 22.9346 13.8614 22.9372Z" fill="white"/>
</svg>
