<svg width="19" height="18" viewBox="0 0 19 18" fill="none" xmlns="http://www.w3.org/2000/svg">
<g clip-path="url(#clip0_416_615)">
<path d="M7.72476 14.7403C9.24363 14.7426 10.7233 14.2728 11.9471 13.3997H11.946C11.9789 13.4424 12.0141 13.4828 12.0536 13.5223L16.2814 17.6249C16.4873 17.8249 16.7666 17.9373 17.0579 17.9374C17.3492 17.9375 17.6286 17.8253 17.8347 17.6255C18.0407 17.4256 18.1566 17.1546 18.1567 16.8719C18.1568 16.5892 18.0411 16.3181 17.8352 16.1181L13.6074 12.0155C13.5682 11.9769 13.526 11.9413 13.4812 11.9089C14.3806 10.7221 14.8647 9.28696 14.8626 7.81374C14.862 5.97689 14.1098 4.21542 12.7713 2.91657C11.4329 1.61771 9.61765 0.887772 7.72476 0.887207C5.83168 0.887207 4.01615 1.61697 2.67754 2.91594C1.33893 4.21492 0.586914 5.97671 0.586914 7.81374C0.586914 9.65077 1.33893 11.4126 2.67754 12.7115C4.01615 14.0105 5.83168 14.7403 7.72476 14.7403Z" fill="white"/>
</g>
<defs>
<clipPath id="clip0_416_615">
<rect width="17.5701" height="17.0499" fill="white" transform="translate(0.586914 0.887207)"/>
</clipPath>
</defs>
</svg>
