<svg width="73" height="93" viewBox="0 0 73 93" fill="none" xmlns="http://www.w3.org/2000/svg">
<path d="M12.8849 10.7001C11.341 6.8134 13.2378 2.34343 17.3256 1.46022C22.7423 0.289883 28.3475 0.107652 33.868 0.944767C41.8949 2.16197 49.4541 5.4906 55.7717 10.5898C62.0892 15.6891 66.9381 22.3757 69.8217 29.965C72.7054 37.5543 73.5203 45.7737 72.1829 53.7815C70.8455 61.7893 67.404 69.2978 62.2107 75.5382C57.0173 81.7787 50.2588 86.5267 42.6271 89.2964C34.9954 92.066 26.7648 92.7576 18.7779 91.3003C13.2851 90.2982 8.04325 88.3044 3.30083 85.4374C-0.278122 83.2738 -0.619457 78.4301 2.10361 75.2559C4.82667 72.0818 9.58548 71.8187 13.3289 73.6833C15.8989 74.9633 18.6471 75.8817 21.4962 76.4015C26.8426 77.377 32.3521 76.914 37.4607 75.0601C42.5692 73.2061 47.0933 70.0278 50.5697 65.8505C54.0461 61.6732 56.3498 56.6471 57.245 51.2868C58.1402 45.9264 57.5948 40.4245 55.6645 35.3442C53.7342 30.264 50.4884 25.7881 46.2595 22.3747C42.0306 18.9613 36.9705 16.7332 31.5974 15.9184C28.7339 15.4842 25.8365 15.4597 22.99 15.8351C18.8438 16.382 14.4288 14.5868 12.8849 10.7001Z" fill="url(#paint0_linear_416_584)"/>
<defs>
<linearGradient id="paint0_linear_416_584" x1="27" y1="-26.0402" x2="52.9583" y2="98.6611" gradientUnits="userSpaceOnUse">
<stop stop-color="#24126A"/>
<stop offset="1" stop-color="#24126A" stop-opacity="0"/>
</linearGradient>
</defs>
</svg>
