<svg width="145" height="158" viewBox="0 0 145 158" fill="none" xmlns="http://www.w3.org/2000/svg">
<path d="M4.56221 112.909C0.531154 115.118 -0.980733 120.208 1.64341 123.982C8.29788 133.553 17.0251 141.549 27.2157 147.352C39.8251 154.531 54.1799 158.07 68.6815 157.573C83.1831 157.077 97.2623 152.565 109.351 144.54C121.44 136.515 131.064 125.292 137.152 112.121C143.239 98.9491 145.551 84.3465 143.83 69.9388C142.109 55.5311 136.423 41.8839 127.404 30.5169C118.386 19.15 106.389 10.5095 92.7498 5.55767C81.7271 1.55575 69.9815 0.0900027 58.3799 1.22325C53.8048 1.67014 50.9077 6.11987 51.8369 10.6218C52.7662 15.1237 57.1737 17.96 61.7597 17.6443C70.3217 17.0548 78.9446 18.2552 87.0689 21.2048C97.8113 25.105 107.26 31.9105 114.364 40.8635C121.467 49.8164 125.946 60.5653 127.301 71.9132C128.657 83.2611 126.836 94.7625 122.041 105.137C117.246 115.511 109.666 124.35 100.145 130.671C90.6231 136.992 79.5339 140.546 68.112 140.937C56.6901 141.328 45.3839 138.541 35.4524 132.886C27.9414 128.609 21.4397 122.819 16.3407 115.916C13.6096 112.218 8.59327 110.699 4.56221 112.909Z" fill="url(#paint0_linear_416_581)"/>
<defs>
<linearGradient id="paint0_linear_416_581" x1="67.8367" y1="-2.4052" x2="-80.6479" y2="139.607" gradientUnits="userSpaceOnUse">
<stop stop-color="#7DBEE3"/>
<stop offset="1" stop-color="#FFFEFF" stop-opacity="0"/>
</linearGradient>
</defs>
</svg>
