<svg width="24" height="24" viewBox="0 0 24 24" fill="none" xmlns="http://www.w3.org/2000/svg">
<path d="M22.2655 9.77808C22.2422 9.67324 22.1966 9.57462 22.1319 9.4889C22.0672 9.40317 21.9849 9.33235 21.8905 9.2812L19.6592 8.0437C19.5405 7.79995 19.4092 7.56558 19.2655 7.34058L19.303 4.79058C19.3038 4.68362 19.2826 4.57764 19.2407 4.47924C19.1987 4.38085 19.137 4.29215 19.0592 4.2187C17.9482 3.21142 16.6344 2.4538 15.2061 1.99683C15.1035 1.96484 14.9953 1.95499 14.8887 1.96792C14.782 1.98085 14.6793 2.01626 14.5873 2.07183L12.403 3.38433C12.1311 3.37495 11.8686 3.37495 11.5967 3.38433L9.41233 2.07183C9.32037 2.01626 9.21766 1.98085 9.111 1.96792C9.00434 1.95499 8.89615 1.96484 8.79358 1.99683C7.36339 2.45415 6.04898 3.21529 4.94045 4.22808C4.86202 4.299 4.79969 4.3859 4.75765 4.48292C4.7156 4.57995 4.69482 4.68485 4.6967 4.79058L4.74358 7.34058C4.59358 7.56558 4.46233 7.79995 4.33108 8.0437L2.1092 9.2812C2.01359 9.3308 1.93028 9.40117 1.86539 9.48714C1.8005 9.57312 1.75568 9.67253 1.7342 9.77808C1.41542 11.2422 1.41542 12.7577 1.7342 14.2218C1.75749 14.3267 1.80302 14.4253 1.86772 14.511C1.93241 14.5967 2.01477 14.6676 2.1092 14.7187L4.34045 15.9562C4.46006 16.1987 4.5947 16.4336 4.74358 16.6593L4.6967 19.2093C4.69584 19.3163 4.71705 19.4223 4.75899 19.5207C4.80093 19.6191 4.8627 19.7078 4.94045 19.7812C6.05296 20.7864 7.36633 21.5437 8.79358 22.0031C8.89615 22.0351 9.00434 22.0449 9.111 22.032C9.21766 22.0191 9.32037 21.9836 9.41233 21.9281L11.5967 20.6156H12.403L14.5967 21.9281C14.7107 22.0031 14.8446 22.0422 14.9811 22.0406C15.0573 22.0373 15.1329 22.0247 15.2061 22.0031C16.6363 21.5458 17.9507 20.7846 19.0592 19.7718C19.1376 19.7009 19.2 19.614 19.242 19.517C19.2841 19.42 19.3048 19.3151 19.303 19.2093L19.2655 16.6593C19.4061 16.4343 19.5373 16.2 19.6686 15.9562L21.8998 14.7187C21.9929 14.667 22.0737 14.5959 22.1368 14.5101C22.1999 14.4244 22.2438 14.3261 22.2655 14.2218C22.5842 12.7577 22.5842 11.2422 22.2655 9.77808ZM16.1248 12C16.1248 12.8158 15.8829 13.6133 15.4296 14.2917C14.9764 14.97 14.3321 15.4987 13.5784 15.811C12.8247 16.1232 11.9953 16.2049 11.1951 16.0457C10.3949 15.8865 9.6599 15.4937 9.08301 14.9168C8.50612 14.3399 8.11325 13.6049 7.95409 12.8047C7.79492 12.0045 7.87661 11.1751 8.18882 10.4214C8.50104 9.66764 9.02975 9.0234 9.7081 8.57014C10.3865 8.11688 11.184 7.87495 11.9998 7.87495C13.0938 7.87495 14.1431 8.30955 14.9166 9.08314C15.6902 9.85672 16.1248 10.9059 16.1248 12Z" fill="white"/>
</svg>
