<svg width="9" height="10" viewBox="0 0 9 10" fill="none" xmlns="http://www.w3.org/2000/svg">
<path d="M4.19168 8.07397C4.22608 8.12394 4.27212 8.16479 4.32581 8.19301C4.37951 8.22124 4.43927 8.23598 4.49993 8.23598C4.56059 8.23598 4.62035 8.22124 4.67405 8.19301C4.72774 8.16479 4.77378 8.12394 4.80818 8.07397L8.18318 3.19897C8.22225 3.14274 8.24515 3.07688 8.24942 3.00855C8.25368 2.94021 8.23914 2.87202 8.20736 2.81137C8.17559 2.75072 8.1278 2.69994 8.06919 2.66454C8.01058 2.62915 7.9434 2.61049 7.87493 2.6106H1.12493C1.05662 2.61088 0.989682 2.62978 0.931311 2.66526C0.872939 2.70074 0.825344 2.75146 0.793644 2.81197C0.761943 2.87248 0.747337 2.94048 0.751396 3.00867C0.755455 3.07686 0.778026 3.14265 0.81668 3.19897L4.19168 8.07397Z" fill="#979699"/>
</svg>
