<svg width="24" height="24" viewBox="0 0 24 24" fill="none" xmlns="http://www.w3.org/2000/svg">
<path d="M22.4998 5.25V11.25C22.5003 11.3981 22.4569 11.543 22.3752 11.6664C22.2934 11.7899 22.177 11.8864 22.0404 11.9438C21.9479 11.9805 21.8494 11.9996 21.7498 12C21.5507 11.9992 21.3594 11.922 21.2155 11.7844L18.7498 9.30938L13.2842 14.7844C13.142 14.9252 12.95 15.0042 12.7498 15.0042C12.5497 15.0042 12.3576 14.9252 12.2154 14.7844L8.99982 11.5594L2.7842 17.7844C2.64023 17.922 2.44898 17.9992 2.24982 18C2.05104 17.9973 1.86044 17.9204 1.71545 17.7844C1.57461 17.6422 1.49561 17.4501 1.49561 17.25C1.49561 17.0499 1.57461 16.8578 1.71545 16.7156L8.46545 9.96563C8.60764 9.82479 8.79969 9.74578 8.99982 9.74578C9.19996 9.74578 9.392 9.82479 9.5342 9.96563L12.7498 13.1906L17.6904 8.25L15.2154 5.78438C15.1137 5.67594 15.0447 5.54091 15.0165 5.39491C14.9883 5.24891 15.002 5.09791 15.0561 4.95938C15.1145 4.8236 15.2112 4.70781 15.3344 4.62621C15.4577 4.54461 15.602 4.50075 15.7498 4.5H21.7498C21.9487 4.5 22.1395 4.57902 22.2802 4.71967C22.4208 4.86032 22.4998 5.05109 22.4998 5.25Z" fill="white"/>
</svg>
