<svg width="24" height="24" viewBox="0 0 24 24" fill="none" xmlns="http://www.w3.org/2000/svg">
<path d="M11.3624 14.8033C12.3686 14.1349 13.133 13.1602 13.5422 12.0236C13.9515 10.887 13.984 9.64881 13.6349 8.4923C13.2857 7.3358 12.5736 6.32242 11.6037 5.60213C10.6339 4.88184 9.45794 4.49292 8.24989 4.49292C7.04184 4.49292 5.86588 4.88184 4.89604 5.60213C3.92621 6.32242 3.21403 7.3358 2.86491 8.4923C2.51578 9.64881 2.54826 10.887 2.95753 12.0236C3.36681 13.1602 4.13113 14.1349 5.13739 14.8033C3.4208 15.4346 1.93871 16.5764 0.890513 18.0752C0.808638 18.1864 0.759905 18.3184 0.74995 18.4561C0.739996 18.5938 0.769227 18.7315 0.834263 18.8533C0.89853 18.9743 0.994331 19.0757 1.11151 19.1466C1.22869 19.2176 1.36289 19.2555 1.49989 19.2564H14.9999C15.1369 19.2555 15.2711 19.2176 15.3883 19.1466C15.5054 19.0757 15.6012 18.9743 15.6655 18.8533C15.7305 18.7315 15.7598 18.5938 15.7498 18.4561C15.7399 18.3184 15.6911 18.1864 15.6093 18.0752C14.5611 16.5764 13.079 15.4346 11.3624 14.8033Z" fill="white"/>
<path d="M23.2595 18.075C22.2054 16.5781 20.721 15.437 19.0033 14.8032C20.0127 14.1372 20.7802 13.1633 21.1916 12.0261C21.6031 10.8889 21.6364 9.64931 21.2867 8.49167C20.937 7.33403 20.2229 6.32021 19.2507 5.60102C18.2785 4.88182 17.1001 4.49568 15.8908 4.50004C15.3746 4.50277 14.861 4.5721 14.3626 4.70629C14.2456 4.74145 14.1386 4.80401 14.0505 4.8888C13.9625 4.97358 13.8959 5.07813 13.8564 5.19379C13.8187 5.30849 13.8092 5.43061 13.8288 5.54976C13.8484 5.66891 13.8964 5.78157 13.9689 5.87816C14.8168 7.01739 15.3039 8.38452 15.3674 9.80323C15.4309 11.2219 15.0679 12.6271 14.3251 13.8375C14.2299 13.9984 14.1973 14.1887 14.2336 14.372C14.27 14.5554 14.3726 14.7189 14.522 14.8313C14.8033 15.05 15.0751 15.275 15.3376 15.5063L15.3845 15.5532C16.3852 16.4792 17.197 17.5903 17.7751 18.825C17.8345 18.9541 17.9296 19.0633 18.0493 19.1398C18.169 19.2162 18.3081 19.2567 18.4501 19.2563H22.6408C22.7778 19.2554 22.912 19.2174 23.0291 19.1465C23.1463 19.0755 23.2421 18.9741 23.3064 18.8532C23.3706 18.7316 23.4003 18.5948 23.392 18.4575C23.3837 18.3203 23.3379 18.188 23.2595 18.075Z" fill="white"/>
</svg>
