<svg xmlns="http://www.w3.org/2000/svg" width="810" height="707" fill="none" viewBox="0 0 810 707"><path stroke="#8686F2" stroke-miterlimit="10" stroke-width="1.724" d="M631.189 359.315C691.942 394.411 792.684 452.608 792.684 452.608C794.326 453.526 794.938 455.646 794.048 457.345C793.736 457.942 793.261 458.431 792.684 458.755L459.578 651.02C451.063 655.875 440.733 655.875 432.216 651.02L239.395 539.731C237.764 538.823 237.154 536.721 238.033 535.036C238.109 534.887 238.198 534.744 238.295 534.609C238.594 534.196 238.968 533.848 239.395 533.584L586.188 333.319"/><path fill="#7981E5" d="M586.297 246.842L789.275 363.956L809.507 353.387L802.255 365.636C801.646 367.027 800.591 368.157 799.268 368.836L441.014 575.57C436.922 577.848 432.043 578.05 427.787 576.117L213.965 454.888C213.03 454.4 212.294 453.584 211.887 452.586L204.429 440.16C204.429 440.16 217.26 431.004 220.601 432.899L573.045 247.389C575.274 246.143 577.739 245.513 580.21 245.514C582.28 245.514 584.355 245.956 586.297 246.842Z"/><path fill="#C2C1F6" d="M806.016 351.716L807.301 352.336L805.231 351.16L586.387 223.617C586.633 223.75 577.004 221.019 573.807 222.991L203.569 433.344L203.452 433.649L201.334 436.482L204.062 437.875C202.975 437.367 206.123 439.226 206.697 439.341L426.679 567.262C428.05 568.025 433.074 569.557 436.277 567.611L807.16 353.537C807.869 353.007 806.787 352.586 807.628 352.586C808.29 352.586 805.41 351.379 806.016 351.716Z"/><path fill="#2E1591" d="M436.704 570.251L203.864 435.479L203.622 441.747L207.384 443.598C206.296 443.09 208.78 444.262 208.911 444.377L429.833 572.144C429.648 570.571 433.461 573.094 434.151 571.677L436.704 570.251Z"/><path fill="#24126A" d="M574.45 222.417L203.864 433.176C203.907 432.663 202.283 435.562 202.482 435.799L433.592 568.715C436.171 566.651 438.031 566.45 441.203 564.473L807.953 351.634C809.003 351.02 807.526 348.425 807.858 348.551L586.36 221.478C581.76 220.85 577.609 220.472 574.45 222.417Z"/><path stroke="#6261AB" stroke-linecap="round" stroke-linejoin="round" stroke-width="1.848" d="M513.929 671.985C516.761 669.997 518.546 668.745 518.546 668.745C520.733 667.454 523.231 667.454 525.418 668.745L567.276 698.124C569.775 699.739 569.775 703.29 567.276 705.227"/><path stroke="#6261AB" stroke-linecap="round" stroke-linejoin="round" stroke-width="1.848" d="M189.07 569.937L103.166 616.75C99.7293 618.687 95.6686 618.687 92.5446 616.75L5.39147 568.323C0.0809829 565.418 0.393175 557.669 5.39147 554.764L91.2958 507.951C94.7321 506.014 98.7927 506.014 101.917 507.951L189.07 556.701C194.38 559.283 194.38 567.031 189.07 569.937Z"/></svg>